# File created by Blade
# Date/Time:  Thu Jan 22 18:25:10 2015
# Frame Rate: 120.000 fps
#------------------------------------------------------
:FULLY-SPECIFIED
:DEGREES
2776
root -2.844161 33.114784 -0.347263 7.340542 -1.222603 2.747501
RightUpLeg -1.017032 -5.082583 -2.126874
RightLeg 0.630875 -0.000000 -0.000000
RightFoot -12.401826 -3.992387 3.670372
RightToeBase 5.926569 -0.000000 -0.000000
LeftUpLeg -0.996789 3.736315 0.555092
LeftLeg 1.072695 -0.000000 -0.000000
LeftFoot -10.712564 1.850284 -8.975883
LeftToeBase 8.809888 -0.000000 -0.000000
Spine -12.583836 -11.717968 -1.820108
RightShoulder 5.930133 4.795321 -19.796053
RightArm 56.974363 -33.907613 77.612006
RightForeArm 42.918755 -0.000000 117.978067
RightHand 19.860749 -0.000000 20.101131
RightHandThumb1 -24.326973 -0.000000 -32.862282
LeftShoulder -1.302847 -59.461786 49.749853
LeftArm 66.623578 42.146106 -93.336389
LeftForeArm 18.338230 0.000000 119.587708
LeftHand 0.499149 -0.000000 -25.454251
LeftHandThumb1 -26.253704 0.000000 33.147579
Head -1.778401 17.467616 -6.029996
2777
root -2.844130 33.114967 -0.346723 7.334753 -1.230172 2.744635
RightUpLeg -1.009140 -5.085455 -2.125223
RightLeg 0.625495 -0.000000 -0.000000
RightFoot -12.398135 -3.983224 3.658856
RightToeBase 5.998182 -0.000000 -0.000000
LeftUpLeg -0.988135 3.735099 0.557649
LeftLeg 1.071960 -0.000000 -0.000000
LeftFoot -10.717071 1.858199 -8.979751
LeftToeBase 8.821156 -0.000000 -0.000000
Spine -12.588214 -11.701330 -1.821744
RightShoulder 5.906834 4.776996 -19.778364
RightArm 56.996119 -33.912167 77.585234
RightForeArm 42.913971 -0.000000 117.962486
RightHand 19.871321 -0.000000 20.094968
RightHandThumb1 -24.326973 -0.000000 -32.862282
LeftShoulder -1.284018 -59.470228 49.728025
LeftArm 66.628011 42.151975 -93.339470
LeftForeArm 18.331466 0.000000 119.584480
LeftHand 0.474908 -0.000000 -25.442366
LeftHandThumb1 -26.253704 0.000000 33.147579
Head -1.768740 17.440322 -6.020576
2778
root -2.843843 33.114337 -0.346290 7.331279 -1.234945 2.740037
RightUpLeg -1.002343 -5.085747 -2.121664
RightLeg 0.616980 -0.000000 -0.000000
RightFoot -12.389740 -3.983722 3.647450
RightToeBase 5.954645 -0.000000 -0.000000
LeftUpLeg -0.981899 3.738658 0.557904
LeftLeg 1.074037 -0.000000 -0.000000
LeftFoot -10.736017 1.868728 -9.005460
LeftToeBase 8.854323 -0.000000 -0.000000
Spine -12.592011 -11.714696 -1.810136
RightShoulder 5.902561 4.744418 -19.776808
RightArm 57.063285 -33.909815 77.538186
RightForeArm 42.961718 0.000000 117.945743
RightHand 19.960700 0.000000 19.908682
RightHandThumb1 -24.326973 -0.000000 -32.862282
LeftShoulder -1.301953 -59.442749 49.714602
LeftArm 66.664893 42.164889 -93.312548
LeftForeArm 18.326657 -0.000000 119.562518
LeftHand 0.454847 -0.000000 -25.457629
LeftHandThumb1 -26.253704 0.000000 33.147579
Head -1.771165 17.453901 -6.020380
2779
root -2.843138 33.114368 -0.345891 7.328383 -1.244303 2.745022
RightUpLeg -1.000449 -5.077663 -2.128811
RightLeg 0.616691 -0.000000 -0.000000
RightFoot -12.398407 -3.980148 3.664674
RightToeBase 5.966805 -0.000000 -0.000000
LeftUpLeg -0.975444 3.744132 0.553554
LeftLeg 1.067929 -0.000000 -0.000000
LeftFoot -10.718542 1.864467 -8.977360
LeftToeBase 8.778627 -0.000000 -0.000000
Spine -12.597955 -11.708862 -1.819520
RightShoulder 5.892843 4.731649 -19.768018
RightArm 57.065486 -33.914464 77.529477
RightForeArm 42.915474 -0.000000 117.933533
RightHand 19.887164 -0.000000 20.051755
RightHandThumb1 -24.326973 -0.000000 -32.862282
LeftShoulder -1.292517 -59.443915 49.706283
LeftArm 66.657311 42.170540 -93.311760
LeftForeArm 18.321234 -0.000000 119.551201
LeftHand 0.438563 0.000000 -25.455277
LeftHandThumb1 -26.253704 0.000000 33.147579
Head -1.766648 17.440197 -6.001434
2780
root -2.842897 33.114263 -0.345937 7.324617 -1.251917 2.742623
RightUpLeg -0.996869 -5.060721 -2.129261
RightLeg 0.615983 -0.000000 -0.000000
RightFoot -12.399367 -3.989310 3.660404
RightToeBase 5.977514 -0.000000 -0.000000
LeftUpLeg -0.969019 3.749646 0.555879
LeftLeg 1.064107 -0.000000 -0.000000
LeftFoot -10.724123 1.861511 -8.985515
LeftToeBase 8.823051 -0.000000 -0.000000
Spine -12.602555 -11.703928 -1.818797
RightShoulder 5.872626 4.681600 -19.762772
RightArm 57.138242 -33.913441 77.476209
RightForeArm 42.952331 0.000000 117.913062
RightHand 19.948820 0.000000 19.891320
RightHandThumb1 -24.326973 -0.000000 -32.862282
LeftShoulder -1.274542 -59.448872 49.681222
LeftArm 66.640600 42.168088 -93.334226
LeftForeArm 18.326019 -0.000000 119.529978
LeftHand 0.449381 -0.000000 -25.530342
LeftHandThumb1 -26.253704 0.000000 33.147579
Head -1.760825 17.432170 -5.988412
2781
root -2.842131 33.114217 -0.345708 7.322257 -1.261064 2.744552
RightUpLeg -0.994159 -5.051408 -2.133549
RightLeg 0.612170 -0.000000 -0.000000
RightFoot -12.395122 -3.985827 3.673978
RightToeBase 5.936781 -0.000000 -0.000000
LeftUpLeg -0.967033 3.753546 0.551224
LeftLeg 1.068506 -0.000000 -0.000000
LeftFoot -10.726586 1.875564 -8.965860
LeftToeBase 8.793934 -0.000000 -0.000000
Spine -12.607387 -11.694249 -1.820188
RightShoulder 5.863386 4.661181 -19.757100
RightArm 57.153135 -33.911253 77.462264
RightForeArm 42.972685 -0.000000 117.908743
RightHand 19.941864 -0.000000 19.886547
RightHandThumb1 -24.326973 -0.000000 -32.862282
LeftShoulder -1.276876 -59.466193 49.676950
LeftArm 66.615574 42.170745 -93.358336
LeftForeArm 18.313612 -0.000000 119.513359
LeftHand 0.477007 -0.000000 -25.574669
LeftHandThumb1 -26.253704 0.000000 33.147579
Head -1.759469 17.401148 -5.975995
2782
root -2.842250 33.114191 -0.345768 7.320505 -1.266032 2.742449
RightUpLeg -0.993408 -5.050027 -2.131808
RightLeg 0.612846 -0.000000 -0.000000
RightFoot -12.394758 -3.988479 3.655627
RightToeBase 5.979766 -0.000000 -0.000000
LeftUpLeg -0.963856 3.747307 0.553312
LeftLeg 1.068863 -0.000000 -0.000000
LeftFoot -10.729766 1.881300 -8.981418
LeftToeBase 8.817298 -0.000000 -0.000000
Spine -12.613866 -11.703765 -1.816671
RightShoulder 5.871845 4.660642 -19.748658
RightArm 57.155889 -33.919738 77.452112
RightForeArm 42.934247 -0.000000 117.904898
RightHand 19.946287 -0.000000 19.879634
RightHandThumb1 -24.326973 -0.000000 -32.862282
LeftShoulder -1.275526 -59.462613 49.668330
LeftArm 66.585892 42.185754 -93.387063
LeftForeArm 18.330977 0.000000 119.496268
LeftHand 0.463144 -0.000000 -25.618890
LeftHandThumb1 -26.253704 0.000000 33.147579
Head -1.756794 17.400383 -5.965305
2783
root -2.842117 33.113962 -0.345981 7.315325 -1.274988 2.742604
RightUpLeg -0.990866 -5.039933 -2.132787
RightLeg 0.613493 -0.000000 -0.000000
RightFoot -12.394871 -3.986388 3.667860
RightToeBase 5.968863 -0.000000 -0.000000
LeftUpLeg -0.960007 3.751213 0.551714
LeftLeg 1.072442 -0.000000 -0.000000
LeftFoot -10.730099 1.887792 -8.972562
LeftToeBase 8.788739 -0.000000 -0.000000
Spine -12.611069 -11.704058 -1.821336
RightShoulder 5.869032 4.658360 -19.737079
RightArm 57.157380 -33.921029 77.447952
RightForeArm 42.928540 0.000000 117.906295
RightHand 19.945407 -0.000000 19.864432
RightHandThumb1 -24.326973 -0.000000 -32.862282
LeftShoulder -1.270876 -59.475694 49.658445
LeftArm 66.564506 42.192342 -93.401670
LeftForeArm 18.329719 -0.000000 119.471235
LeftHand 0.489030 -0.000000 -25.612200
LeftHandThumb1 -26.253704 0.000000 33.147579
Head -1.767017 17.398621 -5.948031
2784
root -2.841556 33.114425 -0.346012 7.304987 -1.279591 2.740839
RightUpLeg -0.979121 -5.047070 -2.132959
RightLeg 0.607858 -0.000000 -0.000000
RightFoot -12.387905 -3.986887 3.647022
RightToeBase 5.958515 -0.000000 -0.000000
LeftUpLeg -0.951176 3.734937 0.552991
LeftLeg 1.078363 -0.000000 -0.000000
LeftFoot -10.719962 1.881917 -9.051160
LeftToeBase 8.715550 -0.000000 -0.000000
Spine -12.611765 -11.698200 -1.819441
RightShoulder 5.878367 4.763959 -19.730932
RightArm 57.001916 -33.940436 77.540246
RightForeArm 42.906715 -0.000000 117.906639
RightHand 19.947874 -0.000000 19.859441
RightHandThumb1 -24.326973 -0.000000 -32.862282
LeftShoulder -1.225044 -59.577636 49.632063
LeftArm 66.430702 42.194437 -93.476838
LeftForeArm 18.430762 -0.000000 119.472046
LeftHand 0.480099 -0.000000 -25.553830
LeftHandThumb1 -26.253704 0.000000 33.147579
Head -1.748488 17.385810 -5.940643
2785
root -2.841440 33.114798 -0.346613 7.302218 -1.282586 2.740030
RightUpLeg -0.980018 -5.033784 -2.133243
RightLeg 0.612804 -0.000000 -0.000000
RightFoot -12.390114 -3.990223 3.660711
RightToeBase 5.982000 -0.000000 -0.000000
LeftUpLeg -0.952085 3.734937 0.554187
LeftLeg 1.084489 -0.000000 -0.000000
LeftFoot -10.734940 1.903743 -8.981481
LeftToeBase 8.789513 -0.000000 -0.000000
Spine -12.614062 -11.703174 -1.820265
RightShoulder 5.884602 4.758287 -19.720136
RightArm 57.001106 -33.936708 77.530930
RightForeArm 42.878236 -0.000000 117.902214
RightHand 19.983603 -0.000000 19.853648
RightHandThumb1 -24.326973 -0.000000 -32.862282
LeftShoulder -1.212951 -59.587100 49.614744
LeftArm 66.419800 42.213125 -93.471437
LeftForeArm 18.492541 -0.000000 119.453141
LeftHand 0.487947 -0.000000 -25.501106
LeftHandThumb1 -26.253704 0.000000 33.147579
Head -1.747025 17.379375 -5.927585
2786
root -2.840976 33.114668 -0.346928 7.299819 -1.288759 2.738127
RightUpLeg -0.980233 -5.034038 -2.132438
RightLeg 0.613919 -0.000000 -0.000000
RightFoot -12.386727 -3.981053 3.673384
RightToeBase 5.954401 -0.000000 -0.000000
LeftUpLeg -0.949358 3.726314 0.555816
LeftLeg 1.084872 -0.000000 -0.000000
LeftFoot -10.724431 1.894499 -9.047588
LeftToeBase 8.716140 -0.000000 -0.000000
Spine -12.614238 -11.703348 -1.820060
RightShoulder 5.882526 4.744448 -19.704661
RightArm 57.010011 -33.932239 77.527043
RightForeArm 42.862012 -0.000000 117.897626
RightHand 19.955598 0.000000 19.869030
RightHandThumb1 -24.326973 -0.000000 -32.862282
LeftShoulder -1.204365 -59.599564 49.611241
LeftArm 66.417825 42.223537 -93.462747
LeftForeArm 18.569185 -0.000000 119.440426
LeftHand 0.498393 -0.000000 -25.454541
LeftHandThumb1 -26.253704 0.000000 33.147579
Head -1.753625 17.381013 -5.906661
2787
root -2.840751 33.113651 -0.347257 7.304291 -1.291269 2.738171
RightUpLeg -0.986565 -5.033518 -2.132989
RightLeg 0.615752 -0.000000 -0.000000
RightFoot -12.395067 -3.981469 3.655907
RightToeBase 5.936326 -0.000000 -0.000000
LeftUpLeg -0.957114 3.711824 0.555283
LeftLeg 1.091795 -0.000000 -0.000000
LeftFoot -10.756594 1.926333 -8.999091
LeftToeBase 8.802706 -0.000000 -0.000000
Spine -12.612165 -11.705536 -1.831264
RightShoulder 5.842241 4.552942 -19.691211
RightArm 57.257832 -33.898114 77.376999
RightForeArm 42.887894 -0.000000 117.879126
RightHand 19.940272 0.000000 19.894075
RightHandThumb1 -24.326973 -0.000000 -32.862282
LeftShoulder -1.205700 -59.538337 49.601154
LeftArm 66.541743 42.244173 -93.362500
LeftForeArm 18.606808 -0.000000 119.410019
LeftHand 0.466203 -0.000000 -25.393861
LeftHandThumb1 -26.253704 0.000000 33.147579
Head -1.786324 17.358629 -5.862938
2788
root -2.840738 33.113679 -0.348016 7.307273 -1.290997 2.734203
RightUpLeg -0.989568 -5.046700 -2.129561
RightLeg 0.614570 -0.000000 -0.000000
RightFoot -12.388146 -3.956395 3.677469
RightToeBase 5.967508 -0.000000 -0.000000
LeftUpLeg -0.964023 3.715868 0.559679
LeftLeg 1.097649 -0.000000 -0.000000
LeftFoot -10.759681 1.919670 -8.990478
LeftToeBase 8.801696 -0.000000 -0.000000
Spine -12.621285 -11.715227 -1.828612
RightShoulder 5.840934 4.534551 -19.680163
RightArm 57.290650 -33.900842 77.341341
RightForeArm 42.887878 -0.000000 117.854804
RightHand 19.982284 -0.000000 19.854598
RightHandThumb1 -24.326973 -0.000000 -32.862282
LeftShoulder -1.197232 -59.530379 49.592394
LeftArm 66.541659 42.248749 -93.340512
LeftForeArm 18.631078 0.000000 119.412360
LeftHand 0.414292 -0.000000 -25.382411
LeftHandThumb1 -26.253704 0.000000 33.147579
Head -1.780606 17.365370 -5.835438
